<svg width="296" height="93" viewBox="0 0 296 93" fill="none" xmlns="http://www.w3.org/2000/svg">
<path d="M42.88 2.28882e-05V2.56002C39.9787 2.64535 37.76 2.98669 36.224 3.58402C34.7733 4.09602 33.792 5.12002 33.28 6.65602C32.768 8.10668 32.512 10.4107 32.512 13.568V79.104C32.512 81.5787 32.6827 83.456 33.024 84.736C33.4507 85.9307 34.176 86.7414 35.2 87.168C36.224 87.5094 37.76 87.68 39.808 87.68H45.056C47.616 87.68 50.176 86.912 52.736 85.376C55.296 83.84 57.6853 81.7067 59.904 78.976C62.1227 76.16 64.0427 72.96 65.664 69.376C67.2853 65.7067 68.4373 61.7814 69.12 57.6H72.064C71.808 60.5867 71.68 64.4267 71.68 69.12C71.68 71.2534 71.7227 74.3254 71.808 78.336C71.8933 82.2614 72.1493 86.3574 72.576 90.624C68.224 90.4534 63.3173 90.368 57.856 90.368C52.3947 90.2827 47.5307 90.24 43.264 90.24C41.0453 90.24 38.2293 90.24 34.816 90.24C31.4027 90.24 27.6907 90.2827 23.68 90.368C19.6693 90.368 15.616 90.4107 11.52 90.496C7.424 90.496 3.584 90.5387 -2.14577e-06 90.624V88.064C2.64533 87.8934 4.608 87.552 5.888 87.04C7.25333 86.528 8.14933 85.504 8.576 83.968C9.088 82.432 9.344 80.128 9.344 77.056V13.568C9.344 10.4107 9.088 8.10668 8.576 6.65602C8.14933 5.12002 7.25333 4.09602 5.888 3.58402C4.608 2.98669 2.64533 2.64535 -2.14577e-06 2.56002V2.28882e-05C2.304 0.0853551 5.376 0.170687 9.216 0.25602C13.056 0.341352 17.152 0.384018 21.504 0.384018C25.5147 0.384018 29.44 0.341352 33.28 0.25602C37.12 0.170687 40.32 0.0853551 42.88 2.28882e-05ZM160.81 2.28882e-05V2.56002C158.165 2.98669 156.159 3.79735 154.794 4.99202C153.429 6.18669 152.533 8.02135 152.106 10.496C151.679 12.9707 151.466 16.4694 151.466 20.992V53.376C151.466 58.8374 151.082 63.872 150.314 68.48C149.631 73.088 148.266 77.0987 146.218 80.512C143.999 84.1814 140.714 87.0827 136.362 89.216C132.01 91.3494 126.378 92.416 119.466 92.416C115.541 92.416 111.445 91.9467 107.178 91.008C102.997 90.1547 99.242 88.5334 95.914 86.144C93.098 83.9254 90.922 81.3227 89.386 78.336C87.9353 75.3494 86.954 71.8507 86.442 67.84C85.93 63.744 85.674 59.0507 85.674 53.76V13.568C85.674 10.4107 85.418 8.10668 84.906 6.65602C84.4793 5.12002 83.5833 4.09602 82.218 3.58402C80.938 2.98669 78.9753 2.64535 76.33 2.56002V2.28882e-05C78.634 0.0853551 81.706 0.170687 85.546 0.25602C89.386 0.341352 93.3967 0.384018 97.578 0.384018C101.759 0.384018 105.77 0.341352 109.61 0.25602C113.45 0.170687 116.65 0.0853551 119.21 2.28882e-05V2.56002C116.309 2.64535 114.09 2.98669 112.554 3.58402C111.103 4.09602 110.122 5.12002 109.61 6.65602C109.098 8.10668 108.842 10.4107 108.842 13.568V63.872C108.842 68.0534 109.141 71.68 109.738 74.752C110.421 77.824 111.402 80.3414 112.682 82.304C114.047 84.2667 115.797 85.7174 117.93 86.656C120.063 87.5094 122.623 87.936 125.61 87.936C131.498 87.936 136.106 86.5707 139.434 83.84C142.762 81.024 145.109 77.0987 146.474 72.064C147.839 67.0294 148.522 61.2694 148.522 54.784V23.04C148.522 17.8347 148.266 13.8667 147.754 11.136C147.242 8.32002 146.09 6.31468 144.298 5.12002C142.506 3.84002 139.69 2.98669 135.85 2.56002V2.28882e-05C137.471 0.0853551 139.605 0.170687 142.25 0.25602C144.981 0.341352 147.541 0.384018 149.93 0.384018C151.893 0.384018 153.855 0.341352 155.818 0.25602C157.866 0.170687 159.53 0.0853551 160.81 2.28882e-05ZM251.23 2.28882e-05V2.56002C249.353 3.41335 247.305 5.12002 245.086 7.68002C242.867 10.1547 240.862 13.952 239.07 19.072L213.086 90.752C212.233 90.6667 211.294 90.624 210.27 90.624C209.331 90.5387 208.393 90.496 207.454 90.496C206.515 90.496 205.534 90.5387 204.51 90.624C203.571 90.624 202.675 90.6667 201.822 90.752L168.798 10.752C167.603 7.68002 166.281 5.58935 164.83 4.48002C163.465 3.28535 162.185 2.64535 160.99 2.56002V2.28882e-05C163.806 0.0853551 167.091 0.170687 170.846 0.25602C174.686 0.341352 178.526 0.384018 182.366 0.384018C186.547 0.384018 190.43 0.341352 194.014 0.25602C197.683 0.170687 200.627 0.0853551 202.846 2.28882e-05V2.56002C200.115 2.64535 197.982 2.94402 196.446 3.45602C194.995 3.96802 194.142 4.99202 193.886 6.52802C193.715 7.97869 194.227 10.24 195.422 13.312L218.59 71.296L215.774 74.88L231.902 30.592C234.377 23.68 235.657 18.2187 235.742 14.208C235.827 10.112 234.931 7.16802 233.054 5.37602C231.177 3.58402 228.531 2.64535 225.118 2.56002V2.28882e-05C228.19 0.0853551 230.963 0.170687 233.438 0.25602C235.998 0.341352 238.686 0.384018 241.502 0.384018C243.294 0.384018 245.043 0.341352 246.75 0.25602C248.457 0.170687 249.95 0.0853551 251.23 2.28882e-05ZM295.606 2.28882e-05V2.56002C292.961 2.64535 290.955 2.98669 289.59 3.58402C288.225 4.09602 287.329 5.12002 286.902 6.65602C286.475 8.10668 286.262 10.4107 286.262 13.568V77.056C286.262 80.128 286.475 82.432 286.902 83.968C287.414 85.504 288.31 86.528 289.59 87.04C290.955 87.552 292.961 87.8934 295.606 88.064V90.624C293.217 90.4534 290.145 90.368 286.39 90.368C282.721 90.2827 279.009 90.24 275.254 90.24C270.902 90.24 266.806 90.2827 262.966 90.368C259.126 90.368 256.054 90.4534 253.75 90.624V88.064C256.395 87.8934 258.358 87.552 259.638 87.04C261.003 86.528 261.899 85.504 262.326 83.968C262.838 82.432 263.094 80.128 263.094 77.056V13.568C263.094 10.4107 262.838 8.10668 262.326 6.65602C261.899 5.12002 261.003 4.09602 259.638 3.58402C258.358 2.98669 256.395 2.64535 253.75 2.56002V2.28882e-05C256.054 0.0853551 259.126 0.170687 262.966 0.25602C266.806 0.341352 270.902 0.384018 275.254 0.384018C279.009 0.384018 282.721 0.341352 286.39 0.25602C290.145 0.170687 293.217 0.0853551 295.606 2.28882e-05Z" fill="black"/>
</svg>
