<svg width="24" height="24" viewBox="0 0 24 24" fill="none" xmlns="http://www.w3.org/2000/svg">
<path d="M10.3305 21.8388L9.97969 21.0284C9.25073 19.3447 9.55809 17.4288 10.7842 16.0127C11.4075 15.2928 12.5928 15.2928 13.2162 16.0127C14.4422 17.4288 14.7496 19.3447 14.0206 21.0284L13.6698 21.8387M10.3305 21.8388C10.869 21.9444 11.4275 22 12 22C12.5727 22 13.1313 21.9444 13.6698 21.8387M10.3305 21.8388C6.71362 21.1294 4 18.1618 4 14.6087C4 13.2326 4.90915 10.6005 6.1145 7.71533C7.67589 3.97803 8.45658 2.10937 9.42032 2.00872C9.72864 1.97652 10.0651 2.03443 10.3402 2.16705C11.2 2.58159 11.2 4.61968 11.2 8.69589C11.2 9.92047 12.2746 10.9133 13.6 10.9133C14.9254 10.9133 16 9.92047 16 8.69589C16 7.52578 17.6845 7.21564 18.1314 8.31046C19.2123 10.9588 20 13.3278 20 14.6087C20 18.1617 17.2865 21.1292 13.6698 21.8387" stroke="#030401" stroke-width="1.5"/>
<path d="M10.3305 21.8388L9.97969 21.0284C9.25073 19.3447 9.55809 17.4288 10.7842 16.0127C11.4075 15.2928 12.5928 15.2928 13.2162 16.0127C14.4422 17.4288 14.7496 19.3447 14.0206 21.0284L13.6698 21.8387M10.3305 21.8388C10.869 21.9444 11.4275 22 12 22C12.5727 22 13.1313 21.9444 13.6698 21.8387M10.3305 21.8388C6.71362 21.1294 4 18.1618 4 14.6087C4 13.2326 4.90915 10.6005 6.1145 7.71533C7.67589 3.97803 8.45658 2.10937 9.42032 2.00872C9.72864 1.97652 10.0651 2.03443 10.3402 2.16705C11.2 2.58159 11.2 4.61968 11.2 8.69589C11.2 9.92047 12.2746 10.9133 13.6 10.9133C14.9254 10.9133 16 9.92047 16 8.69589C16 7.52578 17.6845 7.21564 18.1314 8.31046C19.2123 10.9588 20 13.3278 20 14.6087C20 18.1617 17.2865 21.1292 13.6698 21.8387" stroke="black" stroke-opacity="0.2" stroke-width="1.5"/>
<path d="M10.3305 21.8388L9.97969 21.0284C9.25073 19.3447 9.55809 17.4288 10.7842 16.0127C11.4075 15.2928 12.5928 15.2928 13.2162 16.0127C14.4422 17.4288 14.7496 19.3447 14.0206 21.0284L13.6698 21.8387M10.3305 21.8388C10.869 21.9444 11.4275 22 12 22C12.5727 22 13.1313 21.9444 13.6698 21.8387M10.3305 21.8388C6.71362 21.1294 4 18.1618 4 14.6087C4 13.2326 4.90915 10.6005 6.1145 7.71533C7.67589 3.97803 8.45658 2.10937 9.42032 2.00872C9.72864 1.97652 10.0651 2.03443 10.3402 2.16705C11.2 2.58159 11.2 4.61968 11.2 8.69589C11.2 9.92047 12.2746 10.9133 13.6 10.9133C14.9254 10.9133 16 9.92047 16 8.69589C16 7.52578 17.6845 7.21564 18.1314 8.31046C19.2123 10.9588 20 13.3278 20 14.6087C20 18.1617 17.2865 21.1292 13.6698 21.8387" stroke="black" stroke-opacity="0.2" stroke-width="1.5"/>
<path d="M10.3305 21.8388L9.97969 21.0284C9.25073 19.3447 9.55809 17.4288 10.7842 16.0127C11.4075 15.2928 12.5928 15.2928 13.2162 16.0127C14.4422 17.4288 14.7496 19.3447 14.0206 21.0284L13.6698 21.8387M10.3305 21.8388C10.869 21.9444 11.4275 22 12 22C12.5727 22 13.1313 21.9444 13.6698 21.8387M10.3305 21.8388C6.71362 21.1294 4 18.1618 4 14.6087C4 13.2326 4.90915 10.6005 6.1145 7.71533C7.67589 3.97803 8.45658 2.10937 9.42032 2.00872C9.72864 1.97652 10.0651 2.03443 10.3402 2.16705C11.2 2.58159 11.2 4.61968 11.2 8.69589C11.2 9.92047 12.2746 10.9133 13.6 10.9133C14.9254 10.9133 16 9.92047 16 8.69589C16 7.52578 17.6845 7.21564 18.1314 8.31046C19.2123 10.9588 20 13.3278 20 14.6087C20 18.1617 17.2865 21.1292 13.6698 21.8387" stroke="black" stroke-opacity="0.2" stroke-width="1.5"/>
<path d="M10.3305 21.8388L9.97969 21.0284C9.25073 19.3447 9.55809 17.4288 10.7842 16.0127C11.4075 15.2928 12.5928 15.2928 13.2162 16.0127C14.4422 17.4288 14.7496 19.3447 14.0206 21.0284L13.6698 21.8387M10.3305 21.8388C10.869 21.9444 11.4275 22 12 22C12.5727 22 13.1313 21.9444 13.6698 21.8387M10.3305 21.8388C6.71362 21.1294 4 18.1618 4 14.6087C4 13.2326 4.90915 10.6005 6.1145 7.71533C7.67589 3.97803 8.45658 2.10937 9.42032 2.00872C9.72864 1.97652 10.0651 2.03443 10.3402 2.16705C11.2 2.58159 11.2 4.61968 11.2 8.69589C11.2 9.92047 12.2746 10.9133 13.6 10.9133C14.9254 10.9133 16 9.92047 16 8.69589C16 7.52578 17.6845 7.21564 18.1314 8.31046C19.2123 10.9588 20 13.3278 20 14.6087C20 18.1617 17.2865 21.1292 13.6698 21.8387" stroke="black" stroke-opacity="0.2" stroke-width="1.5"/>
<path d="M10.3305 21.8388L9.97969 21.0284C9.25073 19.3447 9.55809 17.4288 10.7842 16.0127C11.4075 15.2928 12.5928 15.2928 13.2162 16.0127C14.4422 17.4288 14.7496 19.3447 14.0206 21.0284L13.6698 21.8387M10.3305 21.8388C10.869 21.9444 11.4275 22 12 22C12.5727 22 13.1313 21.9444 13.6698 21.8387M10.3305 21.8388C6.71362 21.1294 4 18.1618 4 14.6087C4 13.2326 4.90915 10.6005 6.1145 7.71533C7.67589 3.97803 8.45658 2.10937 9.42032 2.00872C9.72864 1.97652 10.0651 2.03443 10.3402 2.16705C11.2 2.58159 11.2 4.61968 11.2 8.69589C11.2 9.92047 12.2746 10.9133 13.6 10.9133C14.9254 10.9133 16 9.92047 16 8.69589C16 7.52578 17.6845 7.21564 18.1314 8.31046C19.2123 10.9588 20 13.3278 20 14.6087C20 18.1617 17.2865 21.1292 13.6698 21.8387" stroke="black" stroke-opacity="0.2" stroke-width="1.5"/>
</svg>
