<svg width="24" height="24" viewBox="0 0 24 24" fill="none" xmlns="http://www.w3.org/2000/svg">
<g clip-path="url(#clip0_69273_10038)">
<path d="M23.9008 16.1603C23.728 13.241 23.3962 10.8191 22.9148 8.96213C22.2543 6.41432 21.5575 3.97718 21.0894 2.38133C20.6809 0.988818 19.3821 0.000854492 17.9309 0.000854492H14.6206C14.0399 0.000854492 13.4986 0.303131 13.1726 0.783754L12.3832 1.94753C12.1859 2.23847 12.0815 2.5781 12.0815 2.92969V4.09084C12.0815 5.6251 13.3298 6.87334 14.864 6.87334H16.9381V6.97678C16.9381 7.67105 16.8438 8.36592 16.6579 9.0421C16.2845 10.4006 15.9753 11.8324 16.0082 13.335C15.821 13.183 15.6258 13.0409 15.4226 12.9106C14.381 12.2426 13.1625 11.8896 11.899 11.8896C11.8899 11.8896 11.8809 11.8898 11.8718 11.8899C11.5513 10.7381 10.8908 9.69718 9.97188 8.91193C8.87921 7.97829 7.485 7.46411 6.04599 7.46411C2.71224 7.46402 0 10.1763 0 13.5128C0 13.5128 4.68718e-05 13.5269 0.00051559 13.5534C0.00224985 13.8007 0.0190299 14.0489 0.0502934 14.2913C0.107852 14.8329 0.494029 17.5368 2.62088 20.0652C3.62277 21.2563 4.84715 22.1963 6.26006 22.8592C7.92396 23.6398 9.85489 23.999 11.9992 23.999C22.7687 23.999 23.8831 20.546 23.9771 20.148C23.9892 20.097 23.9955 20.0447 23.9959 19.9923C23.9965 19.9253 24.0289 18.3246 23.9008 16.1603ZM11.9992 22.6295C8.42671 22.6295 5.63343 21.4622 3.69697 19.1601C2.24314 17.4317 1.57681 15.3737 1.44792 14.1364C1.44726 14.1304 1.4466 14.1242 1.44576 14.1181C1.42101 13.9288 1.40779 13.7343 1.40662 13.5402C1.40658 13.5374 1.40658 13.5346 1.40648 13.5318L1.40615 13.5101C1.40615 10.9517 3.48759 8.87017 6.04609 8.87017C7.15048 8.87017 8.22028 9.26464 9.05849 9.98089C9.70513 10.5335 10.1842 11.2507 10.4491 12.0465C9.49196 12.2575 8.59469 12.6789 7.80373 13.2954C7.49752 13.5341 7.44273 13.9759 7.68144 14.2822C7.92016 14.5884 8.36198 14.6433 8.66824 14.4045C9.59883 13.6791 10.716 13.2957 11.8992 13.2957C13.9647 13.2747 15.7081 14.4924 16.6369 16.3535C16.7713 16.5046 16.9638 16.5893 17.1624 16.5893C17.2673 16.5893 17.374 16.5657 17.4744 16.5159C17.7056 16.4011 17.8452 16.176 17.8625 15.9359C17.8651 15.8787 17.8676 15.7761 17.8264 15.6572C17.0816 13.4801 17.4764 11.3703 18.014 9.41468C18.2332 8.61711 18.3444 7.79685 18.3444 6.97669V5.00648C18.3444 3.86501 17.4157 2.93639 16.2743 2.93639C15.886 2.93639 15.5712 3.25118 15.5712 3.63947C15.5712 4.02775 15.886 4.34254 16.2743 4.34254C16.6404 4.34254 16.9382 4.64037 16.9382 5.00648V5.46709H14.8642C14.1053 5.46709 13.4878 4.8497 13.4878 4.09075V2.92964C13.4878 2.86064 13.5083 2.79399 13.5471 2.73685L14.3364 1.57303C14.4004 1.47863 14.5067 1.42234 14.6207 1.42234H17.931C18.7622 1.42234 19.5061 1.97941 19.7402 2.77712C20.2055 4.36321 20.8978 6.78498 21.5538 9.31498C22.5694 13.2323 22.6108 18.9879 22.611 19.8668C22.4367 20.217 20.8911 22.6295 11.9992 22.6295Z" fill="#030401"/>
<path d="M23.9008 16.1603C23.728 13.241 23.3962 10.8191 22.9148 8.96213C22.2543 6.41432 21.5575 3.97718 21.0894 2.38133C20.6809 0.988818 19.3821 0.000854492 17.9309 0.000854492H14.6206C14.0399 0.000854492 13.4986 0.303131 13.1726 0.783754L12.3832 1.94753C12.1859 2.23847 12.0815 2.5781 12.0815 2.92969V4.09084C12.0815 5.6251 13.3298 6.87334 14.864 6.87334H16.9381V6.97678C16.9381 7.67105 16.8438 8.36592 16.6579 9.0421C16.2845 10.4006 15.9753 11.8324 16.0082 13.335C15.821 13.183 15.6258 13.0409 15.4226 12.9106C14.381 12.2426 13.1625 11.8896 11.899 11.8896C11.8899 11.8896 11.8809 11.8898 11.8718 11.8899C11.5513 10.7381 10.8908 9.69718 9.97188 8.91193C8.87921 7.97829 7.485 7.46411 6.04599 7.46411C2.71224 7.46402 0 10.1763 0 13.5128C0 13.5128 4.68718e-05 13.5269 0.00051559 13.5534C0.00224985 13.8007 0.0190299 14.0489 0.0502934 14.2913C0.107852 14.8329 0.494029 17.5368 2.62088 20.0652C3.62277 21.2563 4.84715 22.1963 6.26006 22.8592C7.92396 23.6398 9.85489 23.999 11.9992 23.999C22.7687 23.999 23.8831 20.546 23.9771 20.148C23.9892 20.097 23.9955 20.0447 23.9959 19.9923C23.9965 19.9253 24.0289 18.3246 23.9008 16.1603ZM11.9992 22.6295C8.42671 22.6295 5.63343 21.4622 3.69697 19.1601C2.24314 17.4317 1.57681 15.3737 1.44792 14.1364C1.44726 14.1304 1.4466 14.1242 1.44576 14.1181C1.42101 13.9288 1.40779 13.7343 1.40662 13.5402C1.40658 13.5374 1.40658 13.5346 1.40648 13.5318L1.40615 13.5101C1.40615 10.9517 3.48759 8.87017 6.04609 8.87017C7.15048 8.87017 8.22028 9.26464 9.05849 9.98089C9.70513 10.5335 10.1842 11.2507 10.4491 12.0465C9.49196 12.2575 8.59469 12.6789 7.80373 13.2954C7.49752 13.5341 7.44273 13.9759 7.68144 14.2822C7.92016 14.5884 8.36198 14.6433 8.66824 14.4045C9.59883 13.6791 10.716 13.2957 11.8992 13.2957C13.9647 13.2747 15.7081 14.4924 16.6369 16.3535C16.7713 16.5046 16.9638 16.5893 17.1624 16.5893C17.2673 16.5893 17.374 16.5657 17.4744 16.5159C17.7056 16.4011 17.8452 16.176 17.8625 15.9359C17.8651 15.8787 17.8676 15.7761 17.8264 15.6572C17.0816 13.4801 17.4764 11.3703 18.014 9.41468C18.2332 8.61711 18.3444 7.79685 18.3444 6.97669V5.00648C18.3444 3.86501 17.4157 2.93639 16.2743 2.93639C15.886 2.93639 15.5712 3.25118 15.5712 3.63947C15.5712 4.02775 15.886 4.34254 16.2743 4.34254C16.6404 4.34254 16.9382 4.64037 16.9382 5.00648V5.46709H14.8642C14.1053 5.46709 13.4878 4.8497 13.4878 4.09075V2.92964C13.4878 2.86064 13.5083 2.79399 13.5471 2.73685L14.3364 1.57303C14.4004 1.47863 14.5067 1.42234 14.6207 1.42234H17.931C18.7622 1.42234 19.5061 1.97941 19.7402 2.77712C20.2055 4.36321 20.8978 6.78498 21.5538 9.31498C22.5694 13.2323 22.6108 18.9879 22.611 19.8668C22.4367 20.217 20.8911 22.6295 11.9992 22.6295Z" fill="black" fill-opacity="0.2"/>
<path d="M23.9008 16.1603C23.728 13.241 23.3962 10.8191 22.9148 8.96213C22.2543 6.41432 21.5575 3.97718 21.0894 2.38133C20.6809 0.988818 19.3821 0.000854492 17.9309 0.000854492H14.6206C14.0399 0.000854492 13.4986 0.303131 13.1726 0.783754L12.3832 1.94753C12.1859 2.23847 12.0815 2.5781 12.0815 2.92969V4.09084C12.0815 5.6251 13.3298 6.87334 14.864 6.87334H16.9381V6.97678C16.9381 7.67105 16.8438 8.36592 16.6579 9.0421C16.2845 10.4006 15.9753 11.8324 16.0082 13.335C15.821 13.183 15.6258 13.0409 15.4226 12.9106C14.381 12.2426 13.1625 11.8896 11.899 11.8896C11.8899 11.8896 11.8809 11.8898 11.8718 11.8899C11.5513 10.7381 10.8908 9.69718 9.97188 8.91193C8.87921 7.97829 7.485 7.46411 6.04599 7.46411C2.71224 7.46402 0 10.1763 0 13.5128C0 13.5128 4.68718e-05 13.5269 0.00051559 13.5534C0.00224985 13.8007 0.0190299 14.0489 0.0502934 14.2913C0.107852 14.8329 0.494029 17.5368 2.62088 20.0652C3.62277 21.2563 4.84715 22.1963 6.26006 22.8592C7.92396 23.6398 9.85489 23.999 11.9992 23.999C22.7687 23.999 23.8831 20.546 23.9771 20.148C23.9892 20.097 23.9955 20.0447 23.9959 19.9923C23.9965 19.9253 24.0289 18.3246 23.9008 16.1603ZM11.9992 22.6295C8.42671 22.6295 5.63343 21.4622 3.69697 19.1601C2.24314 17.4317 1.57681 15.3737 1.44792 14.1364C1.44726 14.1304 1.4466 14.1242 1.44576 14.1181C1.42101 13.9288 1.40779 13.7343 1.40662 13.5402C1.40658 13.5374 1.40658 13.5346 1.40648 13.5318L1.40615 13.5101C1.40615 10.9517 3.48759 8.87017 6.04609 8.87017C7.15048 8.87017 8.22028 9.26464 9.05849 9.98089C9.70513 10.5335 10.1842 11.2507 10.4491 12.0465C9.49196 12.2575 8.59469 12.6789 7.80373 13.2954C7.49752 13.5341 7.44273 13.9759 7.68144 14.2822C7.92016 14.5884 8.36198 14.6433 8.66824 14.4045C9.59883 13.6791 10.716 13.2957 11.8992 13.2957C13.9647 13.2747 15.7081 14.4924 16.6369 16.3535C16.7713 16.5046 16.9638 16.5893 17.1624 16.5893C17.2673 16.5893 17.374 16.5657 17.4744 16.5159C17.7056 16.4011 17.8452 16.176 17.8625 15.9359C17.8651 15.8787 17.8676 15.7761 17.8264 15.6572C17.0816 13.4801 17.4764 11.3703 18.014 9.41468C18.2332 8.61711 18.3444 7.79685 18.3444 6.97669V5.00648C18.3444 3.86501 17.4157 2.93639 16.2743 2.93639C15.886 2.93639 15.5712 3.25118 15.5712 3.63947C15.5712 4.02775 15.886 4.34254 16.2743 4.34254C16.6404 4.34254 16.9382 4.64037 16.9382 5.00648V5.46709H14.8642C14.1053 5.46709 13.4878 4.8497 13.4878 4.09075V2.92964C13.4878 2.86064 13.5083 2.79399 13.5471 2.73685L14.3364 1.57303C14.4004 1.47863 14.5067 1.42234 14.6207 1.42234H17.931C18.7622 1.42234 19.5061 1.97941 19.7402 2.77712C20.2055 4.36321 20.8978 6.78498 21.5538 9.31498C22.5694 13.2323 22.6108 18.9879 22.611 19.8668C22.4367 20.217 20.8911 22.6295 11.9992 22.6295Z" fill="black" fill-opacity="0.2"/>
<path d="M23.9008 16.1603C23.728 13.241 23.3962 10.8191 22.9148 8.96213C22.2543 6.41432 21.5575 3.97718 21.0894 2.38133C20.6809 0.988818 19.3821 0.000854492 17.9309 0.000854492H14.6206C14.0399 0.000854492 13.4986 0.303131 13.1726 0.783754L12.3832 1.94753C12.1859 2.23847 12.0815 2.5781 12.0815 2.92969V4.09084C12.0815 5.6251 13.3298 6.87334 14.864 6.87334H16.9381V6.97678C16.9381 7.67105 16.8438 8.36592 16.6579 9.0421C16.2845 10.4006 15.9753 11.8324 16.0082 13.335C15.821 13.183 15.6258 13.0409 15.4226 12.9106C14.381 12.2426 13.1625 11.8896 11.899 11.8896C11.8899 11.8896 11.8809 11.8898 11.8718 11.8899C11.5513 10.7381 10.8908 9.69718 9.97188 8.91193C8.87921 7.97829 7.485 7.46411 6.04599 7.46411C2.71224 7.46402 0 10.1763 0 13.5128C0 13.5128 4.68718e-05 13.5269 0.00051559 13.5534C0.00224985 13.8007 0.0190299 14.0489 0.0502934 14.2913C0.107852 14.8329 0.494029 17.5368 2.62088 20.0652C3.62277 21.2563 4.84715 22.1963 6.26006 22.8592C7.92396 23.6398 9.85489 23.999 11.9992 23.999C22.7687 23.999 23.8831 20.546 23.9771 20.148C23.9892 20.097 23.9955 20.0447 23.9959 19.9923C23.9965 19.9253 24.0289 18.3246 23.9008 16.1603ZM11.9992 22.6295C8.42671 22.6295 5.63343 21.4622 3.69697 19.1601C2.24314 17.4317 1.57681 15.3737 1.44792 14.1364C1.44726 14.1304 1.4466 14.1242 1.44576 14.1181C1.42101 13.9288 1.40779 13.7343 1.40662 13.5402C1.40658 13.5374 1.40658 13.5346 1.40648 13.5318L1.40615 13.5101C1.40615 10.9517 3.48759 8.87017 6.04609 8.87017C7.15048 8.87017 8.22028 9.26464 9.05849 9.98089C9.70513 10.5335 10.1842 11.2507 10.4491 12.0465C9.49196 12.2575 8.59469 12.6789 7.80373 13.2954C7.49752 13.5341 7.44273 13.9759 7.68144 14.2822C7.92016 14.5884 8.36198 14.6433 8.66824 14.4045C9.59883 13.6791 10.716 13.2957 11.8992 13.2957C13.9647 13.2747 15.7081 14.4924 16.6369 16.3535C16.7713 16.5046 16.9638 16.5893 17.1624 16.5893C17.2673 16.5893 17.374 16.5657 17.4744 16.5159C17.7056 16.4011 17.8452 16.176 17.8625 15.9359C17.8651 15.8787 17.8676 15.7761 17.8264 15.6572C17.0816 13.4801 17.4764 11.3703 18.014 9.41468C18.2332 8.61711 18.3444 7.79685 18.3444 6.97669V5.00648C18.3444 3.86501 17.4157 2.93639 16.2743 2.93639C15.886 2.93639 15.5712 3.25118 15.5712 3.63947C15.5712 4.02775 15.886 4.34254 16.2743 4.34254C16.6404 4.34254 16.9382 4.64037 16.9382 5.00648V5.46709H14.8642C14.1053 5.46709 13.4878 4.8497 13.4878 4.09075V2.92964C13.4878 2.86064 13.5083 2.79399 13.5471 2.73685L14.3364 1.57303C14.4004 1.47863 14.5067 1.42234 14.6207 1.42234H17.931C18.7622 1.42234 19.5061 1.97941 19.7402 2.77712C20.2055 4.36321 20.8978 6.78498 21.5538 9.31498C22.5694 13.2323 22.6108 18.9879 22.611 19.8668C22.4367 20.217 20.8911 22.6295 11.9992 22.6295Z" fill="black" fill-opacity="0.2"/>
<path d="M23.9008 16.1603C23.728 13.241 23.3962 10.8191 22.9148 8.96213C22.2543 6.41432 21.5575 3.97718 21.0894 2.38133C20.6809 0.988818 19.3821 0.000854492 17.9309 0.000854492H14.6206C14.0399 0.000854492 13.4986 0.303131 13.1726 0.783754L12.3832 1.94753C12.1859 2.23847 12.0815 2.5781 12.0815 2.92969V4.09084C12.0815 5.6251 13.3298 6.87334 14.864 6.87334H16.9381V6.97678C16.9381 7.67105 16.8438 8.36592 16.6579 9.0421C16.2845 10.4006 15.9753 11.8324 16.0082 13.335C15.821 13.183 15.6258 13.0409 15.4226 12.9106C14.381 12.2426 13.1625 11.8896 11.899 11.8896C11.8899 11.8896 11.8809 11.8898 11.8718 11.8899C11.5513 10.7381 10.8908 9.69718 9.97188 8.91193C8.87921 7.97829 7.485 7.46411 6.04599 7.46411C2.71224 7.46402 0 10.1763 0 13.5128C0 13.5128 4.68718e-05 13.5269 0.00051559 13.5534C0.00224985 13.8007 0.0190299 14.0489 0.0502934 14.2913C0.107852 14.8329 0.494029 17.5368 2.62088 20.0652C3.62277 21.2563 4.84715 22.1963 6.26006 22.8592C7.92396 23.6398 9.85489 23.999 11.9992 23.999C22.7687 23.999 23.8831 20.546 23.9771 20.148C23.9892 20.097 23.9955 20.0447 23.9959 19.9923C23.9965 19.9253 24.0289 18.3246 23.9008 16.1603ZM11.9992 22.6295C8.42671 22.6295 5.63343 21.4622 3.69697 19.1601C2.24314 17.4317 1.57681 15.3737 1.44792 14.1364C1.44726 14.1304 1.4466 14.1242 1.44576 14.1181C1.42101 13.9288 1.40779 13.7343 1.40662 13.5402C1.40658 13.5374 1.40658 13.5346 1.40648 13.5318L1.40615 13.5101C1.40615 10.9517 3.48759 8.87017 6.04609 8.87017C7.15048 8.87017 8.22028 9.26464 9.05849 9.98089C9.70513 10.5335 10.1842 11.2507 10.4491 12.0465C9.49196 12.2575 8.59469 12.6789 7.80373 13.2954C7.49752 13.5341 7.44273 13.9759 7.68144 14.2822C7.92016 14.5884 8.36198 14.6433 8.66824 14.4045C9.59883 13.6791 10.716 13.2957 11.8992 13.2957C13.9647 13.2747 15.7081 14.4924 16.6369 16.3535C16.7713 16.5046 16.9638 16.5893 17.1624 16.5893C17.2673 16.5893 17.374 16.5657 17.4744 16.5159C17.7056 16.4011 17.8452 16.176 17.8625 15.9359C17.8651 15.8787 17.8676 15.7761 17.8264 15.6572C17.0816 13.4801 17.4764 11.3703 18.014 9.41468C18.2332 8.61711 18.3444 7.79685 18.3444 6.97669V5.00648C18.3444 3.86501 17.4157 2.93639 16.2743 2.93639C15.886 2.93639 15.5712 3.25118 15.5712 3.63947C15.5712 4.02775 15.886 4.34254 16.2743 4.34254C16.6404 4.34254 16.9382 4.64037 16.9382 5.00648V5.46709H14.8642C14.1053 5.46709 13.4878 4.8497 13.4878 4.09075V2.92964C13.4878 2.86064 13.5083 2.79399 13.5471 2.73685L14.3364 1.57303C14.4004 1.47863 14.5067 1.42234 14.6207 1.42234H17.931C18.7622 1.42234 19.5061 1.97941 19.7402 2.77712C20.2055 4.36321 20.8978 6.78498 21.5538 9.31498C22.5694 13.2323 22.6108 18.9879 22.611 19.8668C22.4367 20.217 20.8911 22.6295 11.9992 22.6295Z" fill="black" fill-opacity="0.2"/>
<path d="M23.9008 16.1603C23.728 13.241 23.3962 10.8191 22.9148 8.96213C22.2543 6.41432 21.5575 3.97718 21.0894 2.38133C20.6809 0.988818 19.3821 0.000854492 17.9309 0.000854492H14.6206C14.0399 0.000854492 13.4986 0.303131 13.1726 0.783754L12.3832 1.94753C12.1859 2.23847 12.0815 2.5781 12.0815 2.92969V4.09084C12.0815 5.6251 13.3298 6.87334 14.864 6.87334H16.9381V6.97678C16.9381 7.67105 16.8438 8.36592 16.6579 9.0421C16.2845 10.4006 15.9753 11.8324 16.0082 13.335C15.821 13.183 15.6258 13.0409 15.4226 12.9106C14.381 12.2426 13.1625 11.8896 11.899 11.8896C11.8899 11.8896 11.8809 11.8898 11.8718 11.8899C11.5513 10.7381 10.8908 9.69718 9.97188 8.91193C8.87921 7.97829 7.485 7.46411 6.04599 7.46411C2.71224 7.46402 0 10.1763 0 13.5128C0 13.5128 4.68718e-05 13.5269 0.00051559 13.5534C0.00224985 13.8007 0.0190299 14.0489 0.0502934 14.2913C0.107852 14.8329 0.494029 17.5368 2.62088 20.0652C3.62277 21.2563 4.84715 22.1963 6.26006 22.8592C7.92396 23.6398 9.85489 23.999 11.9992 23.999C22.7687 23.999 23.8831 20.546 23.9771 20.148C23.9892 20.097 23.9955 20.0447 23.9959 19.9923C23.9965 19.9253 24.0289 18.3246 23.9008 16.1603ZM11.9992 22.6295C8.42671 22.6295 5.63343 21.4622 3.69697 19.1601C2.24314 17.4317 1.57681 15.3737 1.44792 14.1364C1.44726 14.1304 1.4466 14.1242 1.44576 14.1181C1.42101 13.9288 1.40779 13.7343 1.40662 13.5402C1.40658 13.5374 1.40658 13.5346 1.40648 13.5318L1.40615 13.5101C1.40615 10.9517 3.48759 8.87017 6.04609 8.87017C7.15048 8.87017 8.22028 9.26464 9.05849 9.98089C9.70513 10.5335 10.1842 11.2507 10.4491 12.0465C9.49196 12.2575 8.59469 12.6789 7.80373 13.2954C7.49752 13.5341 7.44273 13.9759 7.68144 14.2822C7.92016 14.5884 8.36198 14.6433 8.66824 14.4045C9.59883 13.6791 10.716 13.2957 11.8992 13.2957C13.9647 13.2747 15.7081 14.4924 16.6369 16.3535C16.7713 16.5046 16.9638 16.5893 17.1624 16.5893C17.2673 16.5893 17.374 16.5657 17.4744 16.5159C17.7056 16.4011 17.8452 16.176 17.8625 15.9359C17.8651 15.8787 17.8676 15.7761 17.8264 15.6572C17.0816 13.4801 17.4764 11.3703 18.014 9.41468C18.2332 8.61711 18.3444 7.79685 18.3444 6.97669V5.00648C18.3444 3.86501 17.4157 2.93639 16.2743 2.93639C15.886 2.93639 15.5712 3.25118 15.5712 3.63947C15.5712 4.02775 15.886 4.34254 16.2743 4.34254C16.6404 4.34254 16.9382 4.64037 16.9382 5.00648V5.46709H14.8642C14.1053 5.46709 13.4878 4.8497 13.4878 4.09075V2.92964C13.4878 2.86064 13.5083 2.79399 13.5471 2.73685L14.3364 1.57303C14.4004 1.47863 14.5067 1.42234 14.6207 1.42234H17.931C18.7622 1.42234 19.5061 1.97941 19.7402 2.77712C20.2055 4.36321 20.8978 6.78498 21.5538 9.31498C22.5694 13.2323 22.6108 18.9879 22.611 19.8668C22.4367 20.217 20.8911 22.6295 11.9992 22.6295Z" fill="black" fill-opacity="0.2"/>
<path d="M20.2786 16.9884C19.4279 17.3429 18.8445 18.1117 19.1153 19.4327C19.1854 19.7748 19.5372 20.0181 19.8864 20.0181C20.0238 20.0083 20.1495 19.9593 20.253 19.8826C20.4667 19.7242 20.5615 19.4504 20.5116 19.1891L20.4781 19.0141C20.4394 18.811 20.4861 18.5974 20.6187 18.4388C20.6728 18.3741 20.7414 18.3172 20.8275 18.2831C21.0586 18.1913 21.232 17.9892 21.2528 17.7414C21.3031 17.1407 20.7457 16.7937 20.2786 16.9884Z" fill="#030401"/>
<path d="M20.2786 16.9884C19.4279 17.3429 18.8445 18.1117 19.1153 19.4327C19.1854 19.7748 19.5372 20.0181 19.8864 20.0181C20.0238 20.0083 20.1495 19.9593 20.253 19.8826C20.4667 19.7242 20.5615 19.4504 20.5116 19.1891L20.4781 19.0141C20.4394 18.811 20.4861 18.5974 20.6187 18.4388C20.6728 18.3741 20.7414 18.3172 20.8275 18.2831C21.0586 18.1913 21.232 17.9892 21.2528 17.7414C21.3031 17.1407 20.7457 16.7937 20.2786 16.9884Z" fill="black" fill-opacity="0.2"/>
<path d="M20.2786 16.9884C19.4279 17.3429 18.8445 18.1117 19.1153 19.4327C19.1854 19.7748 19.5372 20.0181 19.8864 20.0181C20.0238 20.0083 20.1495 19.9593 20.253 19.8826C20.4667 19.7242 20.5615 19.4504 20.5116 19.1891L20.4781 19.0141C20.4394 18.811 20.4861 18.5974 20.6187 18.4388C20.6728 18.3741 20.7414 18.3172 20.8275 18.2831C21.0586 18.1913 21.232 17.9892 21.2528 17.7414C21.3031 17.1407 20.7457 16.7937 20.2786 16.9884Z" fill="black" fill-opacity="0.2"/>
<path d="M20.2786 16.9884C19.4279 17.3429 18.8445 18.1117 19.1153 19.4327C19.1854 19.7748 19.5372 20.0181 19.8864 20.0181C20.0238 20.0083 20.1495 19.9593 20.253 19.8826C20.4667 19.7242 20.5615 19.4504 20.5116 19.1891L20.4781 19.0141C20.4394 18.811 20.4861 18.5974 20.6187 18.4388C20.6728 18.3741 20.7414 18.3172 20.8275 18.2831C21.0586 18.1913 21.232 17.9892 21.2528 17.7414C21.3031 17.1407 20.7457 16.7937 20.2786 16.9884Z" fill="black" fill-opacity="0.2"/>
<path d="M20.2786 16.9884C19.4279 17.3429 18.8445 18.1117 19.1153 19.4327C19.1854 19.7748 19.5372 20.0181 19.8864 20.0181C20.0238 20.0083 20.1495 19.9593 20.253 19.8826C20.4667 19.7242 20.5615 19.4504 20.5116 19.1891L20.4781 19.0141C20.4394 18.811 20.4861 18.5974 20.6187 18.4388C20.6728 18.3741 20.7414 18.3172 20.8275 18.2831C21.0586 18.1913 21.232 17.9892 21.2528 17.7414C21.3031 17.1407 20.7457 16.7937 20.2786 16.9884Z" fill="black" fill-opacity="0.2"/>
<path d="M20.2786 16.9884C19.4279 17.3429 18.8445 18.1117 19.1153 19.4327C19.1854 19.7748 19.5372 20.0181 19.8864 20.0181C20.0238 20.0083 20.1495 19.9593 20.253 19.8826C20.4667 19.7242 20.5615 19.4504 20.5116 19.1891L20.4781 19.0141C20.4394 18.811 20.4861 18.5974 20.6187 18.4388C20.6728 18.3741 20.7414 18.3172 20.8275 18.2831C21.0586 18.1913 21.232 17.9892 21.2528 17.7414C21.3031 17.1407 20.7457 16.7937 20.2786 16.9884Z" fill="black" fill-opacity="0.2"/>
</g>
<defs>
<clipPath id="clip0_69273_10038">
<rect width="24" height="24" fill="white"/>
</clipPath>
</defs>
</svg>
