<svg width="24" height="24" viewBox="0 0 24 24" fill="none" xmlns="http://www.w3.org/2000/svg">
<path d="M12 12V12.01M22 12C22 17.5228 17.5228 22 12 22C6.47715 22 2 17.5228 2 12C2 6.47715 6.47715 2 12 2C17.5228 2 22 6.47715 22 12ZM16.0265 6.58317L10.5685 8.83061C9.78064 9.15501 9.15501 9.78064 8.83061 10.5685L6.58317 16.0265C6.22273 16.9019 7.09809 17.7773 7.97346 17.4168L13.4315 15.1694C14.2194 14.845 14.845 14.2194 15.1694 13.4315L17.4168 7.97346C17.7773 7.09809 16.9019 6.22273 16.0265 6.58317Z" stroke="#030401" stroke-width="1.5" stroke-linecap="round" stroke-linejoin="round"/>
<path d="M12 12V12.01M22 12C22 17.5228 17.5228 22 12 22C6.47715 22 2 17.5228 2 12C2 6.47715 6.47715 2 12 2C17.5228 2 22 6.47715 22 12ZM16.0265 6.58317L10.5685 8.83061C9.78064 9.15501 9.15501 9.78064 8.83061 10.5685L6.58317 16.0265C6.22273 16.9019 7.09809 17.7773 7.97346 17.4168L13.4315 15.1694C14.2194 14.845 14.845 14.2194 15.1694 13.4315L17.4168 7.97346C17.7773 7.09809 16.9019 6.22273 16.0265 6.58317Z" stroke="black" stroke-opacity="0.2" stroke-width="1.5" stroke-linecap="round" stroke-linejoin="round"/>
<path d="M12 12V12.01M22 12C22 17.5228 17.5228 22 12 22C6.47715 22 2 17.5228 2 12C2 6.47715 6.47715 2 12 2C17.5228 2 22 6.47715 22 12ZM16.0265 6.58317L10.5685 8.83061C9.78064 9.15501 9.15501 9.78064 8.83061 10.5685L6.58317 16.0265C6.22273 16.9019 7.09809 17.7773 7.97346 17.4168L13.4315 15.1694C14.2194 14.845 14.845 14.2194 15.1694 13.4315L17.4168 7.97346C17.7773 7.09809 16.9019 6.22273 16.0265 6.58317Z" stroke="black" stroke-opacity="0.2" stroke-width="1.5" stroke-linecap="round" stroke-linejoin="round"/>
<path d="M12 12V12.01M22 12C22 17.5228 17.5228 22 12 22C6.47715 22 2 17.5228 2 12C2 6.47715 6.47715 2 12 2C17.5228 2 22 6.47715 22 12ZM16.0265 6.58317L10.5685 8.83061C9.78064 9.15501 9.15501 9.78064 8.83061 10.5685L6.58317 16.0265C6.22273 16.9019 7.09809 17.7773 7.97346 17.4168L13.4315 15.1694C14.2194 14.845 14.845 14.2194 15.1694 13.4315L17.4168 7.97346C17.7773 7.09809 16.9019 6.22273 16.0265 6.58317Z" stroke="black" stroke-opacity="0.2" stroke-width="1.5" stroke-linecap="round" stroke-linejoin="round"/>
<path d="M12 12V12.01M22 12C22 17.5228 17.5228 22 12 22C6.47715 22 2 17.5228 2 12C2 6.47715 6.47715 2 12 2C17.5228 2 22 6.47715 22 12ZM16.0265 6.58317L10.5685 8.83061C9.78064 9.15501 9.15501 9.78064 8.83061 10.5685L6.58317 16.0265C6.22273 16.9019 7.09809 17.7773 7.97346 17.4168L13.4315 15.1694C14.2194 14.845 14.845 14.2194 15.1694 13.4315L17.4168 7.97346C17.7773 7.09809 16.9019 6.22273 16.0265 6.58317Z" stroke="black" stroke-opacity="0.2" stroke-width="1.5" stroke-linecap="round" stroke-linejoin="round"/>
<path d="M12 12V12.01M22 12C22 17.5228 17.5228 22 12 22C6.47715 22 2 17.5228 2 12C2 6.47715 6.47715 2 12 2C17.5228 2 22 6.47715 22 12ZM16.0265 6.58317L10.5685 8.83061C9.78064 9.15501 9.15501 9.78064 8.83061 10.5685L6.58317 16.0265C6.22273 16.9019 7.09809 17.7773 7.97346 17.4168L13.4315 15.1694C14.2194 14.845 14.845 14.2194 15.1694 13.4315L17.4168 7.97346C17.7773 7.09809 16.9019 6.22273 16.0265 6.58317Z" stroke="black" stroke-opacity="0.2" stroke-width="1.5" stroke-linecap="round" stroke-linejoin="round"/>
</svg>
