<svg width="103" height="36" viewBox="0 0 103 36" fill="none" xmlns="http://www.w3.org/2000/svg">
<path opacity="0.5" d="M10.131 19.8617L2.15684 27.2224C1.37707 27.9422 0.933594 28.9551 0.933594 30.0163V33.5796H97.8896C99.9895 33.5796 101.692 31.8773 101.692 29.7774V4.11257L93.4068 13.4332C91.7997 15.2413 88.9349 15.1085 87.5018 13.1595L81.693 5.25956C80.1096 3.1061 76.857 3.21558 75.422 5.47064L67.8911 17.305C66.5084 19.4777 63.4111 19.6762 61.7624 17.6978L59.1544 14.5681C57.4407 12.5118 54.1952 12.8228 52.9033 15.1673L45.6446 28.3406C44.3007 30.7795 40.8773 30.994 39.2395 28.742L38.3047 27.4567C36.7644 25.3388 33.5943 25.3756 32.1036 27.5288L29.6681 31.0468C28.1718 33.208 24.9863 33.2353 23.4533 31.1L15.7986 20.4381C14.4662 18.5822 11.8097 18.3121 10.131 19.8617Z" fill="url(#paint0_linear_68589_7675)"/>
<path d="M0.933594 28.3516L10.131 19.8617C11.8097 18.3121 14.4662 18.5822 15.7986 20.4381L23.4533 31.1C24.9863 33.2353 28.1718 33.208 29.6681 31.0468L32.1036 27.5288C33.5943 25.3756 36.7644 25.3388 38.3047 27.4567L39.2395 28.742C40.8773 30.994 44.3007 30.7795 45.6446 28.3406L52.9033 15.1673C54.1952 12.8228 57.4407 12.5118 59.1544 14.5681L61.7624 17.6978C63.4111 19.6762 66.5084 19.4777 67.8911 17.305L75.422 5.47064C76.8571 3.21558 80.1096 3.1061 81.693 5.25956L87.5018 13.1595C88.9349 15.1085 91.7997 15.2413 93.4068 13.4332L101.692 4.11257" stroke="#D9B18E" stroke-width="0.950548"/>
<defs>
<linearGradient id="paint0_linear_68589_7675" x1="64.6204" y1="0.785643" x2="66.0462" y2="31.6785" gradientUnits="userSpaceOnUse">
<stop stop-color="#DDEE5E" stop-opacity="0.4"/>
<stop offset="1" stop-color="#DDEE5E" stop-opacity="0"/>
</linearGradient>
</defs>
</svg>
