<svg width="25" height="24" viewBox="0 0 25 24" fill="none" xmlns="http://www.w3.org/2000/svg">
<path d="M12.4688 3.80167C15.1388 3.80167 15.4554 3.81167 16.5096 3.86C17.5996 3.91 18.7221 4.15833 19.5163 4.9525C20.3179 5.75417 20.5588 6.86583 20.6087 7.95917C20.6571 9.01333 20.6671 9.33 20.6671 12C20.6671 14.67 20.6571 14.9867 20.6087 16.0408C20.5596 17.125 20.3054 18.2583 19.5163 19.0475C18.7146 19.8492 17.6038 20.09 16.5096 20.14C15.4554 20.1883 15.1388 20.1983 12.4688 20.1983C9.79875 20.1983 9.48208 20.1883 8.42792 20.14C7.35208 20.0908 6.20375 19.8308 5.42125 19.0475C4.62375 18.25 4.37875 17.1275 4.32875 16.0408C4.28042 14.9867 4.27042 14.67 4.27042 12C4.27042 9.33 4.28042 9.01333 4.32875 7.95917C4.37792 6.87917 4.63458 5.73917 5.42125 4.9525C6.22125 4.1525 7.33708 3.91 8.42792 3.86C9.48208 3.81167 9.79875 3.80167 12.4688 3.80167ZM12.4688 2C9.75292 2 9.41208 2.01167 8.34542 2.06C6.79958 2.13083 5.26458 2.56083 4.14708 3.67833C3.02542 4.8 2.59958 6.33167 2.52875 7.87667C2.48042 8.94333 2.46875 9.28417 2.46875 12C2.46875 14.7158 2.48042 15.0567 2.52875 16.1233C2.59958 17.6675 3.03125 19.2067 4.14708 20.3217C5.26792 21.4425 6.80208 21.8692 8.34542 21.94C9.41208 21.9883 9.75292 22 12.4688 22C15.1846 22 15.5254 21.9883 16.5921 21.94C18.1371 21.8692 19.6737 21.4383 20.7904 20.3217C21.9129 19.1992 22.3379 17.6683 22.4087 16.1233C22.4571 15.0567 22.4688 14.7158 22.4688 12C22.4688 9.28417 22.4571 8.94333 22.4087 7.87667C22.3379 6.33083 21.9071 4.795 20.7904 3.67833C19.6712 2.55917 18.1329 2.13 16.5921 2.06C15.5254 2.01167 15.1846 2 12.4688 2Z" fill="#030401"/>
<path d="M12.4688 6.86501C9.63293 6.86501 7.33376 9.16418 7.33376 12C7.33376 14.8358 9.63293 17.135 12.4688 17.135C15.3046 17.135 17.6038 14.8358 17.6038 12C17.6038 9.16418 15.3046 6.86501 12.4688 6.86501ZM12.4688 15.3333C10.6279 15.3333 9.13543 13.8408 9.13543 12C9.13543 10.1592 10.6279 8.66668 12.4688 8.66668C14.3096 8.66668 15.8021 10.1592 15.8021 12C15.8021 13.8408 14.3096 15.3333 12.4688 15.3333Z" fill="#030401"/>
<path d="M17.807 7.86171C18.4698 7.86171 19.007 7.32445 19.007 6.66171C19.007 5.99897 18.4698 5.46171 17.807 5.46171C17.1443 5.46171 16.607 5.99897 16.607 6.66171C16.607 7.32445 17.1443 7.86171 17.807 7.86171Z" fill="#030401"/>
</svg>
