<svg width="40" height="40" viewBox="0 0 40 40" fill="none" xmlns="http://www.w3.org/2000/svg">
<path d="M19.1667 17.3893L22.5 20.7227M5.52141 33.4358L6.56423 34.4787C7.25943 35.1738 8.3866 35.1738 9.08181 34.4787L26.9787 16.5817C27.6738 15.8865 27.6738 14.7594 26.9787 14.0642L25.9358 13.0214C25.2405 12.3262 24.1133 12.3262 23.4182 13.0214L5.52141 30.9183C4.8262 31.6135 4.8262 32.7407 5.52141 33.4358ZM32.5 5L32.3158 5.49788C32.0742 6.15073 31.9533 6.47715 31.7153 6.71528C31.4772 6.9534 31.1507 7.0742 30.4978 7.31577L30 7.5L30.4978 7.68423C31.1507 7.9258 31.4772 8.0466 31.7153 8.28472C31.9533 8.52285 32.0742 8.84927 32.3158 9.50212L32.5 10L32.6842 9.50212C32.9258 8.84927 33.0467 8.52285 33.2847 8.28472C33.5228 8.0466 33.8493 7.9258 34.5022 7.68423L35 7.5L34.5022 7.31577C33.8493 7.0742 33.5228 6.9534 33.2847 6.71528C33.0467 6.47715 32.9258 6.15073 32.6842 5.49788L32.5 5ZM32.5 21.6667L32.3158 22.1645C32.0742 22.8173 31.9533 23.1438 31.7153 23.382C31.4772 23.62 31.1507 23.7408 30.4978 23.9825L30 24.1667L30.4978 24.3508C31.1507 24.5925 31.4772 24.7133 31.7153 24.9513C31.9533 25.1895 32.0742 25.516 32.3158 26.1688L32.5 26.6667L32.6842 26.1688C32.9258 25.516 33.0467 25.1895 33.2847 24.9513C33.5228 24.7133 33.8493 24.5925 34.5022 24.3508L35 24.1667L34.5022 23.9825C33.8493 23.7408 33.5228 23.62 33.2847 23.382C33.0467 23.1438 32.9258 22.8173 32.6842 22.1645L32.5 21.6667ZM15.8333 5L15.6491 5.49788C15.4075 6.15073 15.2867 6.47715 15.0486 6.71528C14.8105 6.9534 14.4841 7.0742 13.8312 7.31577L13.3333 7.5L13.8312 7.68423C14.4841 7.9258 14.8105 8.0466 15.0486 8.28472C15.2867 8.52285 15.4075 8.84927 15.6491 9.50212L15.8333 10L16.0176 9.50212C16.2591 8.84927 16.3799 8.52285 16.618 8.28472C16.8562 8.0466 17.1827 7.9258 17.8355 7.68423L18.3333 7.5L17.8355 7.31577C17.1827 7.0742 16.8562 6.9534 16.618 6.71528C16.3799 6.47715 16.2591 6.15073 16.0176 5.49788L15.8333 5Z" stroke="#030401" stroke-width="1.5" stroke-linecap="round" stroke-linejoin="round"/>
</svg>
