<svg width="23" height="37" viewBox="0 0 23 37" fill="none" xmlns="http://www.w3.org/2000/svg">
<path d="M5.28001 15.0614C3.43839 13.8714 2.51758 13.2764 2.51758 12.5371C2.51758 11.7977 3.43839 11.2027 5.28001 10.0128L7.88446 8.32988C9.72609 7.13991 10.6469 6.54492 11.7911 6.54492C12.9354 6.54492 13.8562 7.13991 15.6978 8.32988L18.3023 10.0128C20.1439 11.2027 21.0647 11.7977 21.0647 12.5371C21.0647 13.2764 20.1439 13.8714 18.3023 15.0614L15.6978 16.7443C13.8562 17.9342 12.9354 18.5292 11.7911 18.5292C10.6469 18.5292 9.72609 17.9342 7.88446 16.7443L5.28001 15.0614Z" stroke="white" stroke-width="1.28403"/>
<path d="M6.01012 15.5331L5.28001 16.0048C3.43839 17.1948 2.51758 17.7898 2.51758 18.5292C2.51758 19.2685 3.43839 19.8635 5.28001 21.0535L7.88446 22.7363C9.72609 23.9263 10.6469 24.5213 11.7911 24.5213C12.9354 24.5213 13.8562 23.9263 15.6978 22.7363L18.3023 21.0535C20.1439 19.8635 21.0647 19.2685 21.0647 18.5292C21.0647 17.7898 20.1439 17.1948 18.3023 16.0048L17.5722 15.5331" stroke="white" stroke-width="1.28403"/>
<path d="M6.01012 21.5253L5.28001 21.997C3.43839 23.187 2.51758 23.782 2.51758 24.5213C2.51758 25.2607 3.43839 25.8557 5.28001 27.0457L7.88446 28.7285C9.72609 29.9185 10.6469 30.5135 11.7911 30.5135C12.9354 30.5135 13.8562 29.9185 15.6978 28.7285L18.3023 27.0457C20.1439 25.8557 21.0647 25.2607 21.0647 24.5213C21.0647 23.782 20.1439 23.187 18.3023 21.997L17.5722 21.5253" stroke="white" stroke-width="1.28403"/>
</svg>
