<svg width="25" height="24" viewBox="0 0 25 24" fill="none" xmlns="http://www.w3.org/2000/svg">
<path d="M22.2812 22.75H2.28125C1.87125 22.75 1.53125 22.41 1.53125 22C1.53125 21.59 1.87125 21.25 2.28125 21.25H22.2812C22.6912 21.25 23.0312 21.59 23.0312 22C23.0312 22.41 22.6912 22.75 22.2812 22.75Z" fill="#030401"/>
<path d="M14.5312 22.75H10.0312C9.62125 22.75 9.28125 22.41 9.28125 22V4C9.28125 2.28 10.2313 1.25 11.8313 1.25H12.7312C14.3312 1.25 15.2812 2.28 15.2812 4V22C15.2812 22.41 14.9412 22.75 14.5312 22.75ZM10.7812 21.25H13.7812V4C13.7812 2.85 13.2412 2.75 12.7312 2.75H11.8313C11.3213 2.75 10.7812 2.85 10.7812 4V21.25Z" fill="#030401"/>
<path d="M7.28125 22.75H3.28125C2.87125 22.75 2.53125 22.41 2.53125 22V10C2.53125 8.28 3.41125 7.25 4.88125 7.25H5.68125C7.15125 7.25 8.03125 8.28 8.03125 10V22C8.03125 22.41 7.69125 22.75 7.28125 22.75ZM4.03125 21.25H6.53125V10C6.53125 8.75 5.98125 8.75 5.68125 8.75H4.88125C4.58125 8.75 4.03125 8.75 4.03125 10V21.25Z" fill="#030401"/>
<path d="M21.2812 22.75H17.2812C16.8713 22.75 16.5312 22.41 16.5312 22V15C16.5312 13.28 17.4113 12.25 18.8813 12.25H19.6812C21.1512 12.25 22.0312 13.28 22.0312 15V22C22.0312 22.41 21.6912 22.75 21.2812 22.75ZM18.0312 21.25H20.5312V15C20.5312 13.75 19.9812 13.75 19.6812 13.75H18.8813C18.5813 13.75 18.0312 13.75 18.0312 15V21.25Z" fill="#030401"/>
</svg>
