<svg width="24" height="24" viewBox="0 0 24 24" fill="none" xmlns="http://www.w3.org/2000/svg">
<path d="M21.7271 12.3371C21.4668 12.2028 21.1939 12.09 20.9117 12C21.1939 11.91 21.4668 11.7972 21.7271 11.6629C22.2439 11.3907 22.6968 11.0283 23.0601 10.5964C23.4233 10.1645 23.6898 9.67158 23.8442 9.14573C23.9987 8.61988 24.0381 8.07143 23.9602 7.53168C23.8824 6.99193 23.6887 6.47147 23.3904 6C23.092 5.52853 22.6948 5.11529 22.2214 4.78387C21.748 4.45246 21.2077 4.20935 20.6314 4.06845C20.055 3.92754 19.4538 3.89158 18.8622 3.96263C18.2706 4.03368 17.7002 4.21035 17.1834 4.48255C16.9265 4.62166 16.6833 4.7808 16.4564 4.95818C16.5114 4.6901 16.5406 4.41816 16.5437 4.14545C16.5437 3.04601 16.065 1.9916 15.2129 1.21418C14.3608 0.436752 13.2051 0 12 0C10.7949 0 9.63922 0.436752 8.78711 1.21418C7.935 1.9916 7.45629 3.04601 7.45629 4.14545C7.45943 4.41816 7.48864 4.6901 7.54358 4.95818C7.31674 4.7808 7.0735 4.62166 6.81658 4.48255C5.77293 3.93282 4.53267 3.78387 3.36864 4.06845C2.20461 4.35302 1.21217 5.04782 0.609635 6C0.00710118 6.95218 -0.156165 8.08373 0.155752 9.14573C0.46767 10.2077 1.22922 11.1132 2.27287 11.6629C2.53316 11.7972 2.80607 11.91 3.08835 12C2.80607 12.09 2.53316 12.2028 2.27287 12.3371C1.49437 12.7469 0.866587 13.3582 0.468923 14.0936C0.0712583 14.829 -0.0784175 15.6554 0.0388282 16.4685C0.156074 17.2815 0.534973 18.0445 1.1276 18.661C1.72022 19.2775 2.49995 19.7198 3.36815 19.932C3.75426 20.0263 4.15219 20.0744 4.5519 20.0749C5.34741 20.0742 6.12861 19.8819 6.81658 19.5175C7.0735 19.3783 7.31674 19.2192 7.54358 19.0418C7.48864 19.3099 7.45943 19.5818 7.45629 19.8545C7.45629 20.954 7.935 22.0084 8.78711 22.7858C9.63922 23.5632 10.7949 24 12 24C13.2051 24 14.3608 23.5632 15.2129 22.7858C16.065 22.0084 16.5437 20.954 16.5437 19.8545C16.5406 19.5818 16.5114 19.3099 16.4564 19.0418C16.6833 19.2192 16.9265 19.3783 17.1834 19.5175C17.8716 19.8811 18.6528 20.0726 19.4481 20.0727C19.8478 20.0722 20.2457 20.0241 20.6319 19.9298C21.5001 19.7177 22.2798 19.2753 22.8724 18.6588C23.465 18.0423 23.8439 17.2793 23.9612 16.4663C24.0784 15.6533 23.9287 14.8268 23.5311 14.0914C23.1334 13.356 22.5056 12.7447 21.7271 12.3349V12.3371ZM17.9008 5.616C18.2547 5.41481 18.6494 5.28064 19.0613 5.22145C19.4732 5.16227 19.8939 5.17929 20.2985 5.2715C20.703 5.36371 21.0831 5.52922 21.4161 5.75819C21.7491 5.98716 22.0282 6.27491 22.2368 6.60431C22.4454 6.93371 22.5792 7.29803 22.6303 7.67559C22.6815 8.05315 22.6488 8.43624 22.5343 8.80204C22.4198 9.16785 22.2259 9.50891 21.9639 9.80492C21.702 10.1009 21.3775 10.3458 21.0097 10.5251C20.4393 10.8251 19.2257 11.196 16.6573 11.34L16.4851 11.3313C16.3046 10.3329 15.73 9.42919 14.8697 8.79055L14.9486 8.64764C16.3715 6.69055 17.3305 5.91709 17.9008 5.616ZM12 14.8364C11.3851 14.8364 10.7841 14.67 10.2728 14.3584C9.76156 14.0467 9.36309 13.6037 9.12779 13.0854C8.89249 12.5672 8.83093 11.9969 8.95088 11.4467C9.07084 10.8965 9.36693 10.3911 9.80171 9.99439C10.2365 9.59772 10.7904 9.32758 11.3935 9.21814C11.9966 9.10869 12.6216 9.16486 13.1897 9.37954C13.7578 9.59422 14.2433 9.95776 14.5849 10.4242C14.9265 10.8906 15.1089 11.439 15.1089 12C15.1089 12.7523 14.7813 13.4737 14.1983 14.0056C13.6153 14.5375 12.8245 14.8364 12 14.8364ZM12 1.30909C12.8245 1.30909 13.6153 1.60792 14.1983 2.13984C14.7813 2.67176 15.1089 3.3932 15.1089 4.14545C15.1089 4.74655 14.8542 5.89091 13.7063 7.99309C13.6752 8.03673 13.6429 8.08036 13.6118 8.12509C12.5722 7.7633 11.423 7.7633 10.3834 8.12509L10.2889 7.992C9.14583 5.89091 8.89115 4.74655 8.89115 4.14545C8.89115 3.3932 9.21868 2.67176 9.80171 2.13984C10.3847 1.60792 11.1755 1.30909 12 1.30909ZM2.9903 10.5295C2.30573 10.1403 1.81374 9.52361 1.61824 8.80966C1.42273 8.09571 1.53902 7.34039 1.94254 6.7032C2.34606 6.06602 3.00522 5.59686 3.78081 5.39481C4.5564 5.19276 5.3877 5.27364 6.09916 5.62036C6.66951 5.92145 7.62847 6.69491 9.04898 8.652L9.1279 8.79491C8.26748 9.435 7.6937 10.3403 7.51488 11.34L7.3427 11.3487C4.7743 11.2004 3.56066 10.8295 2.9903 10.5295ZM6.09916 18.384C5.3877 18.7307 4.5564 18.8116 3.78081 18.6095C3.00522 18.4075 2.34606 17.9383 1.94254 17.3012C1.53902 16.664 1.42273 15.9087 1.61824 15.1947C1.81374 14.4808 2.30573 13.8641 2.9903 13.4749C3.56066 13.1749 4.7743 12.804 7.3427 12.66L7.51488 12.6687C7.69542 13.6671 8.26998 14.5708 9.13029 15.2095L9.05137 15.3524C7.62847 17.3095 6.66951 18.0829 6.09916 18.384ZM12 22.6909C11.5917 22.6909 11.1875 22.6175 10.8103 22.475C10.4331 22.3325 10.0904 22.1235 9.80171 21.8602C9.51302 21.5968 9.28403 21.2841 9.12779 20.94C8.97156 20.5959 8.89115 20.227 8.89115 19.8545C8.89115 19.2535 9.14583 18.1091 10.2937 16.0069C10.3248 15.9633 10.3571 15.9196 10.3882 15.8749C11.4278 16.2367 12.577 16.2367 13.6166 15.8749L13.7111 16.008C14.8542 18.1091 15.1089 19.2535 15.1089 19.8545C15.1089 20.227 15.0284 20.5959 14.8722 20.94C14.716 21.2841 14.487 21.5968 14.1983 21.8602C13.9096 22.1235 13.5669 22.3325 13.1897 22.475C12.8125 22.6175 12.4083 22.6909 12 22.6909ZM22.148 17.3455C21.9439 17.6681 21.6722 17.9509 21.3482 18.1777C21.0243 18.4046 20.6546 18.5709 20.2602 18.6674C19.8658 18.7638 19.4545 18.7884 19.0496 18.7398C18.6448 18.6912 18.2545 18.5703 17.9008 18.384C17.3305 18.0829 16.3715 17.3095 14.951 15.3524L14.8721 15.2095C15.7325 14.5694 16.3063 13.664 16.4851 12.6644L16.6633 12.6545C19.2317 12.7985 20.4453 13.1695 21.0157 13.4695C21.369 13.6561 21.6785 13.9044 21.9267 14.2003C22.1748 14.4961 22.3566 14.8336 22.4617 15.1935C22.5669 15.5534 22.5933 15.9287 22.5395 16.2979C22.4857 16.6672 22.3526 17.0231 22.148 17.3455Z" fill="black"/>
</svg>
