<svg width="20" height="20" viewBox="0 0 20 20" fill="none" xmlns="http://www.w3.org/2000/svg">
<path d="M11.3996 19.9L9.99961 18.5L13.5496 14.95L5.04961 6.44998L1.49961 9.99998L0.0996094 8.59998L1.49961 7.14998L0.0996094 5.74998L2.19961 3.64998L0.799609 2.19998L2.19961 0.799976L3.64961 2.19998L5.74961 0.0999756L7.14961 1.49998L8.59961 0.0999756L9.99961 1.49998L6.44961 5.04998L14.9496 13.55L18.4996 9.99998L19.8996 11.4L18.4996 12.85L19.8996 14.25L17.7996 16.35L19.1996 17.8L17.7996 19.2L16.3496 17.8L14.2496 19.9L12.8496 18.5L11.3996 19.9Z" fill="#030401"/>
</svg>
