<svg width="40" height="40" viewBox="0 0 40 40" fill="none" xmlns="http://www.w3.org/2000/svg">
<path d="M19.9987 20V20.0167M36.6654 20C36.6654 29.2048 29.2034 36.6667 19.9987 36.6667C10.794 36.6667 3.33203 29.2048 3.33203 20C3.33203 10.7953 10.794 3.33337 19.9987 3.33337C29.2034 3.33337 36.6654 10.7953 36.6654 20ZM26.7095 10.972L17.6129 14.7177C16.2998 15.2584 15.2571 16.3011 14.7164 17.6142L10.9707 26.7109C10.3699 28.1699 11.8289 29.6289 13.2878 29.028L22.3845 25.2824C23.6977 24.7417 24.7404 23.699 25.281 22.3859L29.0267 13.2891C29.6275 11.8302 28.1685 10.3713 26.7095 10.972Z" stroke="#030401" stroke-width="1.5" stroke-linecap="round" stroke-linejoin="round"/>
</svg>
