<svg width="42" height="26" viewBox="0 0 42 26" fill="none" xmlns="http://www.w3.org/2000/svg">
<path d="M31.6968 1H31.5409C30.0384 1 28.8203 2.32189 28.8203 3.95252V22.0475C28.8203 23.6781 30.0384 25 31.5409 25H31.6968C33.1993 25 34.4174 23.6781 34.4174 22.0475V3.95252C34.4174 2.32189 33.1993 1 31.6968 1Z" stroke="#212121" stroke-linecap="round" stroke-linejoin="round"/>
<path d="M40.0189 7.89136C40.0189 6.21313 38.766 4.85266 37.2204 4.85266C35.6748 4.85266 34.4219 6.21313 34.4219 7.89136V18.1087C34.4219 19.7869 35.6748 21.1474 37.2204 21.1474C38.766 21.1474 40.0189 19.7869 40.0189 18.1087V7.89136Z" stroke="#212121" stroke-linecap="round" stroke-linejoin="round"/>
<path d="M10.4546 1H10.2987C8.79617 1 7.57812 2.32189 7.57812 3.95252V22.0475C7.57812 23.6781 8.79617 25 10.2987 25H10.4546C11.9571 25 13.1752 23.6781 13.1752 22.0475V3.95252C13.1752 2.32189 11.9571 1 10.4546 1Z" stroke="#212121" stroke-linecap="round" stroke-linejoin="round"/>
<path d="M7.57753 7.89136C7.57753 6.21313 6.32458 4.85266 4.779 4.85266C3.23341 4.85266 1.98047 6.21313 1.98047 7.89136V18.1087C1.98047 19.7869 3.23341 21.1474 4.779 21.1474C6.32458 21.1474 7.57753 19.7869 7.57753 18.1087V7.89136Z" stroke="#212121" stroke-linecap="round" stroke-linejoin="round"/>
<path d="M13.1797 14.1635H28.8209" stroke="#212121" stroke-linecap="round" stroke-linejoin="round"/>
<path d="M13.1797 11.8365H28.8209" stroke="#212121" stroke-linecap="round" stroke-linejoin="round"/>
<path d="M41 11.2908V14.1635" stroke="#212121" stroke-linecap="round" stroke-linejoin="round"/>
<path d="M1 11.2908V14.1635" stroke="#212121" stroke-linecap="round" stroke-linejoin="round"/>
</svg>
