<svg width="40" height="40" viewBox="0 0 40 40" fill="none" xmlns="http://www.w3.org/2000/svg">
<path d="M37.2963 20.3108C36.2602 19.3374 34.771 18.5327 33.1084 18.4219C33.7204 17.4244 34.0722 16.0655 34.2168 14.273C34.2313 14.0802 34.1686 13.8875 34.0433 13.7429C33.918 13.5984 33.7349 13.5068 33.5421 13.4923C32.3228 13.4152 31.2674 13.5068 30.3614 13.7526V6.99675C30.3614 5.79689 29.3831 4.8187 28.1831 4.8187H23.6144V4.57294C23.6144 3.64293 22.8578 2.89122 21.9325 2.89122H18.7229C18.3855 1.24322 16.9253 0 15.1807 0C13.4361 0 11.9759 1.24322 11.6385 2.89122H8.4289C7.49878 2.89122 6.74698 3.64775 6.74698 4.57294V4.8187H2.17831C0.978312 4.8187 0 5.79689 0 6.99675V37.8219C0 39.0218 0.978312 40 2.17831 40H24.8192C24.8482 40 24.8771 39.9952 24.9108 39.9904C24.9927 39.9952 25.0698 40 25.1518 40C25.706 40 26.2216 39.8554 26.6795 39.5808C27.1807 39.8843 27.653 39.9855 28.0192 40C28.0481 40 28.0771 40 28.106 40C28.6265 40 29.1469 39.841 29.6433 39.5374C30.1156 39.841 30.6554 40 31.2385 40C31.6433 40 32.0626 39.9277 32.4963 39.7783C33.5999 39.3977 34.9927 38.0532 36.6361 35.774C38.0192 33.8562 39.6481 31.3022 39.9276 28.5604C40.2795 25.1584 39.3397 22.2286 37.2963 20.3108ZM32.6795 14.909C32.6843 14.909 32.6939 14.909 32.6987 14.909C32.3132 18.0557 31.2241 19.135 28.3373 19.2603C28.318 19.164 28.2987 19.0676 28.2747 18.9664C28.2072 18.205 28.2602 17.0726 28.9542 16.2197C29.653 15.3524 30.906 14.909 32.6795 14.909ZM8.19276 4.57294C8.19276 4.44284 8.29878 4.33683 8.4289 4.33683H12.2891C12.6891 4.33683 13.012 4.01397 13.012 3.61402C13.012 2.41899 13.9855 1.44561 15.1807 1.44561C16.3759 1.44561 17.3494 2.41899 17.3494 3.61402C17.3494 4.01397 17.6723 4.33683 18.0723 4.33683H21.9325C22.0626 4.33683 22.1686 4.44284 22.1686 4.57294V7.46898C22.1686 7.59908 22.0626 7.7051 21.9325 7.7051H8.4289C8.29878 7.7051 8.19276 7.59908 8.19276 7.46898V4.57294ZM1.44578 37.8171V6.99675C1.44578 6.59198 1.77349 6.26431 2.17831 6.26431H6.74698V7.4738C6.74698 8.40381 7.5036 9.15552 8.4289 9.15552H21.9277C22.8578 9.15552 23.6096 8.39899 23.6096 7.4738V6.26431H28.1783C28.5831 6.26431 28.9108 6.59198 28.9108 6.99675V14.2152C28.9108 14.2633 28.9156 14.3115 28.9253 14.3597C28.4963 14.6247 28.1204 14.9428 27.812 15.3235C27.4024 15.8294 27.1518 16.3884 26.9975 16.9425C26.7277 16.7402 26.4048 16.5667 26.0144 16.4269C25.6385 16.2968 25.2241 16.4944 25.0939 16.8703C24.9638 17.2461 25.1614 17.6605 25.5373 17.7906C26.3036 18.0605 26.6506 18.5279 26.8385 19.2459C26.8433 19.2796 26.8433 19.3085 26.8482 19.3422C23.8457 17.5208 20.8289 18.6773 19.0843 20.3156C17.0361 22.2383 16.1012 25.168 16.4482 28.5652C16.7277 31.3071 18.3566 33.861 19.7397 35.7788C20.5927 36.9594 21.3735 37.8846 22.0867 38.5592H2.17831C1.77349 38.5496 1.44578 38.2219 1.44578 37.8171ZM38.4915 28.411C38.2457 30.8107 36.7469 33.1526 35.465 34.9259C33.4698 37.687 32.3951 38.2797 32.024 38.4098C31.6867 38.5255 31.253 38.6074 30.8337 38.4966C30.8385 38.4869 30.8481 38.4821 30.853 38.4725C31.1084 38.1689 31.0698 37.7111 30.7662 37.4557C30.4626 37.2003 30.0048 37.2389 29.7494 37.5425C29.3494 38.0147 28.7277 38.5737 28.0626 38.5496C27.5759 38.5351 27.0891 38.2074 26.6265 37.5762C26.3903 37.2533 25.9373 37.1859 25.6144 37.422C25.2915 37.6581 25.2241 38.1111 25.4602 38.4339C25.4795 38.458 25.4988 38.4773 25.518 38.5014C25.1084 38.5978 24.6891 38.5158 24.3614 38.405C23.9903 38.2749 22.9156 37.6822 20.9204 34.9211C19.6433 33.1478 18.1397 30.8107 17.8939 28.4062C17.5903 25.4668 18.3662 22.9659 20.0819 21.3565C21.3976 20.1229 23.4506 19.2989 25.5759 20.2819C25.2482 20.4843 24.9253 20.7204 24.6216 21.0047C24.3325 21.2794 24.318 21.7371 24.5879 22.0263C24.8626 22.3154 25.3204 22.3298 25.6096 22.06C27.1421 20.624 29.0361 20.6337 30.8144 22.0937C30.9493 22.2046 31.1132 22.2576 31.2722 22.2576C31.4795 22.2576 31.6867 22.166 31.8313 21.9925C32.0867 21.6841 32.0385 21.2264 31.7301 20.9758C31.412 20.7156 31.0891 20.4939 30.7614 20.306C32.906 19.2844 34.9831 20.1132 36.3084 21.3565C38.0144 22.9707 38.7903 25.4716 38.4915 28.411ZM9.15661 14.2152C9.15661 13.8152 9.4795 13.4923 9.8795 13.4923H23.8554C24.2554 13.4923 24.5783 13.8152 24.5783 14.2152C24.5783 14.6151 24.2554 14.938 23.8554 14.938H9.8795C9.4795 14.938 9.15661 14.6151 9.15661 14.2152ZM13.9759 22.8888C13.9759 23.2888 13.653 23.6116 13.253 23.6116H9.8795C9.4795 23.6116 9.15661 23.2888 9.15661 22.8888C9.15661 22.4889 9.4795 22.166 9.8795 22.166H13.253C13.653 22.166 13.9759 22.4889 13.9759 22.8888ZM13.9759 31.5625C13.9759 31.9624 13.653 32.2853 13.253 32.2853H9.8795C9.4795 32.2853 9.15661 31.9624 9.15661 31.5625C9.15661 31.1625 9.4795 30.8397 9.8795 30.8397H13.253C13.653 30.8397 13.9759 31.1625 13.9759 31.5625ZM7.2289 14.2152C7.2289 14.6151 6.90601 14.938 6.50601 14.938H5.54216C5.14216 14.938 4.81927 14.6151 4.81927 14.2152C4.81927 13.8152 5.14216 13.4923 5.54216 13.4923H6.50601C6.90601 13.4923 7.2289 13.8152 7.2289 14.2152ZM7.2289 22.8888C7.2289 23.2888 6.90601 23.6116 6.50601 23.6116H5.54216C5.14216 23.6116 4.81927 23.2888 4.81927 22.8888C4.81927 22.4889 5.14216 22.166 5.54216 22.166H6.50601C6.90601 22.166 7.2289 22.4889 7.2289 22.8888ZM7.2289 31.5625C7.2289 31.9624 6.90601 32.2853 6.50601 32.2853H5.54216C5.14216 32.2853 4.81927 31.9624 4.81927 31.5625C4.81927 31.1625 5.14216 30.8397 5.54216 30.8397H6.50601C6.90601 30.8397 7.2289 31.1625 7.2289 31.5625Z" fill="black"/>
</svg>
