<svg width="16" height="16" viewBox="0 0 16 16" fill="none" xmlns="http://www.w3.org/2000/svg">
<path d="M6.88833 14.5591L6.65443 14.0189C6.16845 12.8964 6.37336 11.6191 7.19075 10.6751C7.60632 10.1951 8.39651 10.1951 8.81208 10.6751C9.62947 11.6191 9.83437 12.8964 9.3484 14.0189L9.11452 14.5591M6.88833 14.5591C7.2473 14.6295 7.61962 14.6666 8.0013 14.6666C8.38307 14.6666 8.75548 14.6295 9.11452 14.5591M6.88833 14.5591C4.47705 14.0862 2.66797 12.1078 2.66797 9.73908C2.66797 8.82168 3.27407 7.06689 4.07763 5.14347C5.11856 2.65194 5.63902 1.40617 6.28152 1.33906C6.48706 1.3176 6.71138 1.3562 6.89474 1.44462C7.46797 1.72098 7.46797 3.07971 7.46797 5.79718C7.46797 6.61356 8.18434 7.27543 9.06797 7.27543C9.95159 7.27543 10.668 6.61356 10.668 5.79718C10.668 5.0171 11.791 4.81034 12.0889 5.54023C12.8095 7.30578 13.3346 8.88514 13.3346 9.73908C13.3346 12.1077 11.5257 14.086 9.11452 14.5591" stroke="#030401" stroke-width="1.5"/>
</svg>
