<svg width="32" height="32" viewBox="0 0 32 32" fill="none" xmlns="http://www.w3.org/2000/svg">
<path d="M26.6654 22.6669V15.2696C26.6654 14.5572 26.6648 14.2008 26.5781 13.8692C26.5014 13.5754 26.3753 13.2974 26.2048 13.0462C26.0123 12.7627 25.7448 12.5276 25.2086 12.0584L18.8086 6.45843C17.8131 5.58739 17.3154 5.15208 16.7552 4.98643C16.2616 4.84046 15.7355 4.84046 15.2419 4.98643C14.6822 5.15196 14.1852 5.58685 13.1912 6.45658L6.78906 12.0584C6.25289 12.5276 5.98542 12.7627 5.79297 13.0462C5.62242 13.2974 5.49543 13.5754 5.41866 13.8692C5.33203 14.2008 5.33203 14.5572 5.33203 15.2696V22.6669C5.33203 23.9094 5.33203 24.5304 5.53502 25.0205C5.80567 25.6739 6.32446 26.1936 6.97786 26.4643C7.46792 26.6673 8.08918 26.6673 9.33169 26.6673C10.5742 26.6673 11.1961 26.6673 11.6862 26.4643C12.3396 26.1936 12.8583 25.674 13.1289 25.0206C13.3319 24.5305 13.332 23.9093 13.332 22.6668V21.3334C13.332 19.8607 14.5259 18.6668 15.9987 18.6668C17.4715 18.6668 18.6654 19.8607 18.6654 21.3334V22.6668C18.6654 23.9093 18.6654 24.5305 18.8684 25.0206C19.139 25.674 19.6578 26.1936 20.3112 26.4643C20.8013 26.6673 21.4225 26.6673 22.665 26.6673C23.9075 26.6673 24.5295 26.6673 25.0195 26.4643C25.6729 26.1936 26.1916 25.6739 26.4622 25.0205C26.6652 24.5304 26.6654 23.9094 26.6654 22.6669Z" stroke="currentColor" stroke-width="1.5" stroke-linecap="round" stroke-linejoin="round"/>
</svg>
