<svg width="24" height="24" viewBox="0 0 24 24" fill="none" xmlns="http://www.w3.org/2000/svg">
<path d="M14.5 5.29999C15.6 5.29999 16.5 4.39999 16.5 3.29999C16.5 2.19999 15.6 1.29999 14.5 1.29999C13.4 1.29999 12.5 2.19999 12.5 3.29999C12.5 4.39999 13.4 5.29999 14.5 5.29999ZM11.3 17.3L11.9 14.8L14 16.8V21.8C14 22.3 14.4 22.8 15 22.8C15.6 22.8 16 22.3 16 21.8V16.2C16 15.6 15.8 15.1 15.4 14.8L13.9 13.4L14.5 10.4C15.6 11.6 17.1 12.5 18.9 12.8C19.5 12.9 20 12.4 20 11.8C20 11.3 19.6 10.9 19.1 10.8C17.6 10.5 16.3 9.69999 15.7 8.49999L14.7 6.89999C14.3 6.29999 13.7 5.89999 13 5.89999C12.7 5.89999 12.5 5.99999 12.2 5.99999L8.2 7.69999C7.4 7.89999 7 8.59999 7 9.39999V11.8C7 12.4 7.4 12.8 8 12.8C8.6 12.8 9 12.4 9 11.8V9.39999L10.8 8.69999L9.2 16.8L5.2 16C4.7 15.9 4.1 16.2 4 16.8C4 17.3 4.3 17.8 4.8 18L9 18.8C10 19 11.1 18.3 11.3 17.3Z" fill="#030401"/>
</svg>
