<svg xmlns="http://www.w3.org/2000/svg" viewBox="0 0 18 18">
  <path fill="#EA4335" d="M17.64 9.2045c0-.6387-.0573-1.2514-.164-1.8365H9v3.4791h4.844a4.1306 4.1306 0 01-1.7937 2.7134v2.2583h2.9003C16.6963 14.257 17.64 11.9495 17.64 9.2045z"/>
  <path fill="#34A853" d="M9 18c2.43 0 4.47-.8067 5.96-2.1992l-2.9-2.2583c-.8067.54-1.8365.8558-3.06.8558-2.3536 0-4.3462-1.5883-5.0593-3.7297H.9398v2.3462C2.4198 15.9852 5.4811 18 9 18z"/>
  <path fill="#4285F4" d="M3.9407 10.6686c-.1832-.54-.2877-1.1146-.2877-1.7012s.1045-1.1612.2877-1.7012V4.9199H.9398A8.9966 8.9966 0 000 8.9674c0 1.4578.3478 2.8389.9398 4.0473l3.0009-2.3461z"/>
  <path fill="#FBBC05" d="M9 3.5795c1.3191 0 2.5067.454 3.4341 1.3468l2.577-2.577C13.4679.8558 11.43 0 9 0 5.4811 0 2.4198 2.0148.9398 5.0136l3.0009 2.3462C4.6538 5.2186 6.6464 3.5795 9 3.5795z"/>
</svg>
